HIERARCHY
ROOT Hips
{
    OFFSET 0.000 95.729 0.000
    CHANNELS 6 Xposition Yposition Zposition Yrotation Xrotation Zrotation
    JOINT RightUpLeg
    {
        OFFSET -9.625 -1.639 0.000
        CHANNELS 6 Xposition Yposition Zposition Yrotation Xrotation Zrotation
        JOINT RightLeg
        {
            OFFSET 0.000 -41.481 0.000
            CHANNELS 6 Xposition Yposition Zposition Yrotation Xrotation Zrotation
            JOINT RightFoot
            {
                OFFSET 0.000 -43.120 0.000
                CHANNELS 6 Xposition Yposition Zposition Yrotation Xrotation Zrotation
                End Site
                {
                    OFFSET 0.000 -7.850 17.850
                }
            }
        }
    }
    JOINT LeftUpLeg
    {
        OFFSET 9.625 -1.639 0.000
        CHANNELS 6 Xposition Yposition Zposition Yrotation Xrotation Zrotation
        JOINT LeftLeg
        {
            OFFSET 0.000 -43.120 0.000
            CHANNELS 6 Xposition Yposition Zposition Yrotation Xrotation Zrotation
            JOINT LeftFoot
            {
                OFFSET 0.000 -43.120 0.000
                CHANNELS 6 Xposition Yposition Zposition Yrotation Xrotation Zrotation
                End Site
                {
                    OFFSET 0.000 -7.850 17.850
                }
            }
        }
    }
    JOINT Spine
    {
        OFFSET 0.000 16.395 0.000
        CHANNELS 6 Xposition Yposition Zposition Yrotation Xrotation Zrotation
        JOINT Spine1
        {
            OFFSET 0.000 10.023 0.000
            CHANNELS 6 Xposition Yposition Zposition Yrotation Xrotation Zrotation
            JOINT Spine2
            {
                OFFSET 0.000 10.437 0.000
                CHANNELS 6 Xposition Yposition Zposition Yrotation Xrotation Zrotation
                JOINT Spine3
                {
                    OFFSET 0.000 10.023 0.000
                    CHANNELS 6 Xposition Yposition Zposition Yrotation Xrotation Zrotation
                    JOINT Neck
                    {
                        OFFSET 0.000 10.713 0.000
                        CHANNELS 6 Xposition Yposition Zposition Yrotation Xrotation Zrotation
                        JOINT Head
                        {
                            OFFSET 0.000 9.720 0.000
                            CHANNELS 6 Xposition Yposition Zposition Yrotation Xrotation Zrotation
                            End Site
                            {
                                OFFSET 0.000 16.450 0.000
                            }
                        }
                    }
                    JOINT RightShoulder
                    {
                        OFFSET -3.275 7.142 0.000
                        CHANNELS 6 Xposition Yposition Zposition Yrotation Xrotation Zrotation
                        JOINT RightArm
                        {
                            OFFSET -13.100 0.000 0.000
                            CHANNELS 6 Xposition Yposition Zposition Yrotation Xrotation Zrotation
                            JOINT RightForeArm
                            {
                                OFFSET -27.250 0.000 0.000
                                CHANNELS 6 Xposition Yposition Zposition Yrotation Xrotation Zrotation
                                JOINT RightHand
                                {
                                    OFFSET -26.750 0.000 0.000
                                    CHANNELS 6 Xposition Yposition Zposition Yrotation Xrotation Zrotation
                                    JOINT RightHandThumb1
                                    {
                                        OFFSET -2.560 0.196 3.210
                                        CHANNELS 6 Xposition Yposition Zposition Yrotation Xrotation Zrotation
                                        JOINT RightHandThumb2
                                        {
                                            OFFSET -3.788 0.000 0.000
                                            CHANNELS 6 Xposition Yposition Zposition Yrotation Xrotation Zrotation
                                            JOINT RightHandThumb3
                                            {
                                                OFFSET -2.631 0.000 0.000
                                                CHANNELS 6 Xposition Yposition Zposition Yrotation Xrotation Zrotation
                                                End Site
                                                {
                                                    OFFSET -2.256 0.000 0.000
                                                }
                                            }
                                        }
                                    }
                                    JOINT RightInHandIndex
                                    {
                                        OFFSET -3.316 0.523 2.035
                                        CHANNELS 6 Xposition Yposition Zposition Yrotation Xrotation Zrotation
                                        JOINT RightHandIndex1
                                        {
                                            OFFSET -5.366 -0.094 1.028
                                            CHANNELS 6 Xposition Yposition Zposition Yrotation Xrotation Zrotation
                                            JOINT RightHandIndex2
                                            {
                                                OFFSET -3.723 0.000 0.000
                                                CHANNELS 6 Xposition Yposition Zposition Yrotation Xrotation Zrotation
                                                JOINT RightHandIndex3
                                                {
                                                    OFFSET -2.111 0.000 0.000
                                                    CHANNELS 6 Xposition Yposition Zposition Yrotation Xrotation Zrotation
                                                    End Site
                                                    {
                                                        OFFSET -1.857 0.000 0.000
                                                    }
                                                }
                                            }
                                        }
                                    }
                                    JOINT RightInHandMiddle
                                    {
                                        OFFSET -3.479 0.532 0.778
                                        CHANNELS 6 Xposition Yposition Zposition Yrotation Xrotation Zrotation
                                        JOINT RightHandMiddle1
                                        {
                                            OFFSET -5.322 -0.086 0.323
                                            CHANNELS 6 Xposition Yposition Zposition Yrotation Xrotation Zrotation
                                            JOINT RightHandMiddle2
                                            {
                                                OFFSET -4.062 0.000 0.000
                                                CHANNELS 6 Xposition Yposition Zposition Yrotation Xrotation Zrotation
                                                JOINT RightHandMiddle3
                                                {
                                                    OFFSET -2.547 0.000 0.000
                                                    CHANNELS 6 Xposition Yposition Zposition Yrotation Xrotation Zrotation
                                                    End Site
                                                    {
                                                        OFFSET -2.031 0.000 0.000
                                                    }
                                                }
                                            }
                                        }
                                    }
                                    JOINT RightInHandRing
                                    {
                                        OFFSET -3.461 0.553 -0.133
                                        CHANNELS 6 Xposition Yposition Zposition Yrotation Xrotation Zrotation
                                        JOINT RightHandRing1
                                        {
                                            OFFSET -4.767 -0.023 -0.493
                                            CHANNELS 6 Xposition Yposition Zposition Yrotation Xrotation Zrotation
                                            JOINT RightHandRing2
                                            {
                                                OFFSET -3.541 0.000 0.000
                                                CHANNELS 6 Xposition Yposition Zposition Yrotation Xrotation Zrotation
                                                JOINT RightHandRing3
                                                {
                                                    OFFSET -2.456 0.000 0.000
                                                    CHANNELS 6 Xposition Yposition Zposition Yrotation Xrotation Zrotation
                                                    End Site
                                                    {
                                                        OFFSET -1.910 0.000 0.000
                                                    }
                                                }
                                            }
                                        }
                                    }
                                    JOINT RightInHandPinky
                                    {
                                        OFFSET -3.251 0.483 -1.236
                                        CHANNELS 6 Xposition Yposition Zposition Yrotation Xrotation Zrotation
                                        JOINT RightHandPinky1
                                        {
                                            OFFSET -4.259 -0.023 -1.122
                                            CHANNELS 6 Xposition Yposition Zposition Yrotation Xrotation Zrotation
                                            JOINT RightHandPinky2
                                            {
                                                OFFSET -2.835 0.000 0.000
                                                CHANNELS 6 Xposition Yposition Zposition Yrotation Xrotation Zrotation
                                                JOINT RightHandPinky3
                                                {
                                                    OFFSET -1.792 0.000 0.000
                                                    CHANNELS 6 Xposition Yposition Zposition Yrotation Xrotation Zrotation
                                                    End Site
                                                    {
                                                        OFFSET -1.692 0.000 0.000
                                                    }
                                                }
                                            }
                                        }
                                    }
                                }
                            }
                        }
                    }
                    JOINT LeftShoulder
                    {
                        OFFSET 3.275 7.142 0.000
                        CHANNELS 6 Xposition Yposition Zposition Yrotation Xrotation Zrotation
                        JOINT LeftArm
                        {
                            OFFSET 13.100 0.000 0.000
                            CHANNELS 6 Xposition Yposition Zposition Yrotation Xrotation Zrotation
                            JOINT LeftForeArm
                            {
                                OFFSET 27.250 0.000 0.000
                                CHANNELS 6 Xposition Yposition Zposition Yrotation Xrotation Zrotation
                                JOINT LeftHand
                                {
                                    OFFSET 26.750 0.000 0.000
                                    CHANNELS 6 Xposition Yposition Zposition Yrotation Xrotation Zrotation
                                    JOINT LeftHandThumb1
                                    {
                                        OFFSET 2.560 0.196 3.210
                                        CHANNELS 6 Xposition Yposition Zposition Yrotation Xrotation Zrotation
                                        JOINT LeftHandThumb2
                                        {
                                            OFFSET 3.788 0.000 0.000
                                            CHANNELS 6 Xposition Yposition Zposition Yrotation Xrotation Zrotation
                                            JOINT LeftHandThumb3
                                            {
                                                OFFSET 2.631 0.000 0.000
                                                CHANNELS 6 Xposition Yposition Zposition Yrotation Xrotation Zrotation
                                                End Site
                                                {
                                                    OFFSET 2.256 0.000 0.000
                                                }
                                            }
                                        }
                                    }
                                    JOINT LeftInHandIndex
                                    {
                                        OFFSET 3.316 0.523 2.035
                                        CHANNELS 6 Xposition Yposition Zposition Yrotation Xrotation Zrotation
                                        JOINT LeftHandIndex1
                                        {
                                            OFFSET 5.366 -0.094 1.028
                                            CHANNELS 6 Xposition Yposition Zposition Yrotation Xrotation Zrotation
                                            JOINT LeftHandIndex2
                                            {
                                                OFFSET 3.723 0.000 0.000
                                                CHANNELS 6 Xposition Yposition Zposition Yrotation Xrotation Zrotation
                                                JOINT LeftHandIndex3
                                                {
                                                    OFFSET 2.111 0.000 0.000
                                                    CHANNELS 6 Xposition Yposition Zposition Yrotation Xrotation Zrotation
                                                    End Site
                                                    {
                                                        OFFSET 1.857 0.000 0.000
                                                    }
                                                }
                                            }
                                        }
                                    }
                                    JOINT LeftInHandMiddle
                                    {
                                        OFFSET 3.479 0.532 0.778
                                        CHANNELS 6 Xposition Yposition Zposition Yrotation Xrotation Zrotation
                                        JOINT LeftHandMiddle1
                                        {
                                            OFFSET 5.322 -0.086 0.323
                                            CHANNELS 6 Xposition Yposition Zposition Yrotation Xrotation Zrotation
                                            JOINT LeftHandMiddle2
                                            {
                                                OFFSET 4.062 0.000 0.000
                                                CHANNELS 6 Xposition Yposition Zposition Yrotation Xrotation Zrotation
                                                JOINT LeftHandMiddle3
                                                {
                                                    OFFSET 2.547 0.000 0.000
                                                    CHANNELS 6 Xposition Yposition Zposition Yrotation Xrotation Zrotation
                                                    End Site
                                                    {
                                                        OFFSET 2.031 0.000 0.000
                                                    }
                                                }
                                            }
                                        }
                                    }
                                    JOINT LeftInHandRing
                                    {
                                        OFFSET 3.461 0.553 -0.133
                                        CHANNELS 6 Xposition Yposition Zposition Yrotation Xrotation Zrotation
                                        JOINT LeftHandRing1
                                        {
                                            OFFSET 4.767 -0.023 -0.493
                                            CHANNELS 6 Xposition Yposition Zposition Yrotation Xrotation Zrotation
                                            JOINT LeftHandRing2
                                            {
                                                OFFSET 3.541 0.000 0.000
                                                CHANNELS 6 Xposition Yposition Zposition Yrotation Xrotation Zrotation
                                                JOINT LeftHandRing3
                                                {
                                                    OFFSET 2.456 0.000 0.000
                                                    CHANNELS 6 Xposition Yposition Zposition Yrotation Xrotation Zrotation
                                                    End Site
                                                    {
                                                        OFFSET 1.910 0.000 0.000
                                                    }
                                                }
                                            }
                                        }
                                    }
                                    JOINT LeftInHandPinky
                                    {
                                        OFFSET 3.251 0.483 -1.236
                                        CHANNELS 6 Xposition Yposition Zposition Yrotation Xrotation Zrotation
                                        JOINT LeftHandPinky1
                                        {
                                            OFFSET 4.259 -0.023 -1.122
                                            CHANNELS 6 Xposition Yposition Zposition Yrotation Xrotation Zrotation
                                            JOINT LeftHandPinky2
                                            {
                                                OFFSET 2.835 0.000 0.000
                                                CHANNELS 6 Xposition Yposition Zposition Yrotation Xrotation Zrotation
                                                JOINT LeftHandPinky3
                                                {
                                                    OFFSET 1.792 0.000 0.000
                                                    CHANNELS 6 Xposition Yposition Zposition Yrotation Xrotation Zrotation
                                                    End Site
                                                    {
                                                        OFFSET 1.692 0.000 0.000
                                                    }
                                                }
                                            }
                                        }
                                    }
                                }
                            }
                        }
                    }
                }
            }
        }
    }
}
MOTION

Frames: 2
Frame Time: 0.008
-29.55 97.04 52.59 115.48 -0.01 0.14 -9.64 -1.62 -0.11 -2.76 5.28 -2.26 0.01 -41.49 -0.04 -2.59 0.44 3.13 3.63 -43.22 -0.39 -6.55 -2.75 -3.72 9.63 -1.65 -0.06 13.09 6.76 4.34 0.02 -43.14 -0.20 -16.60 -6.86 1.92 -3.41 -42.82 0.79 34.90 5.87 -0.29 0.06 16.39 -0.04 21.09 -5.01 -1.46 0.04 10.03 -0.00 5.35 -1.15 -0.17 -0.03 10.43 0.06 8.54 -1.75 -0.34 0.01 10.02 0.04 0.46 0.28 0.01 -0.04 10.70 0.20 0.46 0.28 0.01 -0.07 9.73 0.18 8.25 4.91 0.44 -3.27 7.15 0.01 -0.46 -0.23 -0.09 -13.06 -0.00 0.01 53.84 -19.88 17.54 -27.25 -0.05 0.03 -17.22 -4.91 -13.99 -26.75 -0.05 0.03 8.88 26.04 -7.25 -2.56 0.20 3.21 21.86 -0.00 30.00 -3.79 0.00 0.00 -10.00 -0.00 0.00 -2.63 0.00 0.00 -10.00 -0.00 0.00 -3.32 0.52 2.03 0.00 -0.00 0.00 -5.37 -0.09 1.03 2.55 -0.00 20.00 -3.72 0.00 0.00 0.00 -0.00 24.00 -2.11 0.00 0.00 0.00 -0.00 20.00 -3.48 0.53 0.78 0.00 -0.00 0.00 -5.32 -0.09 0.32 0.00 -0.00 20.00 -4.06 0.00 0.00 0.00 -0.00 24.00 -2.55 0.00 0.00 0.00 -0.00 20.00 -3.46 0.55 -0.13 0.00 -0.00 0.00 -4.77 -0.02 -0.49 -3.00 -0.00 20.00 -3.54 0.00 0.00 0.00 -0.00 24.00 -2.46 0.00 0.00 0.00 -0.00 20.00 -3.25 0.48 -1.24 0.00 -0.00 0.00 -4.26 -0.02 -1.12 -8.83 -0.00 20.00 -2.84 0.00 0.00 0.00 -0.00 24.00 -1.79 0.00 0.00 0.00 -0.00 20.00 3.29 7.14 0.01 -65.21 -6.05 7.14 13.06 -0.01 -0.01 -47.06 -44.51 -43.50 27.25 -0.04 -0.01 38.69 32.58 36.05 26.74 -0.03 0.01 -11.50 -9.07 13.62 2.56 0.20 3.21 -21.86 -0.00 -30.00 3.79 0.00 0.00 10.00 -0.00 0.00 2.63 0.00 0.00 10.00 -0.00 0.00 3.32 0.52 2.03 0.00 -0.00 0.00 5.37 -0.09 1.03 -2.55 -0.00 -20.00 3.72 0.00 0.00 0.00 -0.00 -24.00 2.11 0.00 0.00 0.00 -0.00 -20.00 3.48 0.53 0.78 0.00 -0.00 0.00 5.32 -0.09 0.32 0.00 -0.00 -20.00 4.06 0.00 0.00 0.00 -0.00 -24.00 2.55 0.00 0.00 0.00 -0.00 -20.00 3.46 0.55 -0.13 0.00 -0.00 0.00 4.77 -0.02 -0.49 3.00 -0.00 -20.00 3.54 0.00 0.00 0.00 -0.00 -24.00 2.46 0.00 0.00 0.00 -0.00 -20.00 3.25 0.48 -1.24 0.00 -0.00 0.00 4.26 -0.02 -1.12 8.83 -0.00 -20.00 2.84 0.00 0.00 0.00 -0.00 -24.00 1.79 0.00 0.00 0.00 -0.00 -20.00 
-29.52 97.03 52.58 115.60 -0.15 0.13 -9.66 -1.63 -0.00 -1.92 5.88 -2.06 -0.01 -41.49 0.06 -3.56 -0.07 3.03 3.61 -43.21 -0.39 -6.63 -2.66 -3.68 9.63 -1.65 -0.06 12.96 6.96 4.34 0.03 -43.14 -0.19 -16.61 -6.90 2.01 -3.41 -42.81 0.81 34.92 5.89 -0.32 0.06 16.39 -0.04 21.05 -5.00 -1.43 0.04 10.03 -0.00 5.34 -1.14 -0.16 -0.03 10.43 0.06 8.53 -1.75 -0.32 0.01 10.02 0.04 0.46 0.28 0.01 -0.03 10.71 0.19 0.46 0.28 0.01 -0.07 9.73 0.17 8.25 4.96 0.45 -3.27 7.15 0.01 -0.46 -0.24 -0.09 -13.07 -0.00 0.00 53.80 -19.84 17.57 -27.25 -0.03 0.04 -17.28 -4.90 -13.92 -26.75 -0.03 0.04 8.89 26.11 -7.31 -2.56 0.20 3.21 21.86 -0.00 30.00 -3.79 0.00 0.00 -10.00 -0.00 0.00 -2.63 0.00 0.00 -10.00 -0.00 0.00 -3.32 0.52 2.03 0.00 -0.00 0.00 -5.37 -0.09 1.03 2.55 -0.00 20.00 -3.72 0.00 0.00 0.00 -0.00 24.00 -2.11 0.00 0.00 0.00 -0.00 20.00 -3.48 0.53 0.78 0.00 -0.00 0.00 -5.32 -0.09 0.32 0.00 -0.00 20.00 -4.06 0.00 0.00 0.00 -0.00 24.00 -2.55 0.00 0.00 0.00 -0.00 20.00 -3.46 0.55 -0.13 0.00 -0.00 0.00 -4.77 -0.02 -0.49 -3.00 -0.00 20.00 -3.54 0.00 0.00 0.00 -0.00 24.00 -2.46 0.00 0.00 0.00 -0.00 20.00 -3.25 0.48 -1.24 0.00 -0.00 0.00 -4.26 -0.02 -1.12 -8.83 -0.00 20.00 -2.84 0.00 0.00 0.00 -0.00 24.00 -1.79 0.00 0.00 0.00 -0.00 20.00 3.28 7.13 0.02 -65.18 -6.22 7.22 13.06 -0.02 -0.00 -46.89 -44.50 -43.86 27.25 -0.04 -0.01 38.72 32.64 36.10 26.74 -0.02 0.01 -11.50 -9.11 13.56 2.56 0.20 3.21 -21.86 -0.00 -30.00 3.79 0.00 0.00 10.00 -0.00 0.00 2.63 0.00 0.00 10.00 -0.00 0.00 3.32 0.52 2.03 0.00 -0.00 0.00 5.37 -0.09 1.03 -2.55 -0.00 -20.00 3.72 0.00 0.00 0.00 -0.00 -24.00 2.11 0.00 0.00 0.00 -0.00 -20.00 3.48 0.53 0.78 0.00 -0.00 0.00 5.32 -0.09 0.32 0.00 -0.00 -20.00 4.06 0.00 0.00 0.00 -0.00 -24.00 2.55 0.00 0.00 0.00 -0.00 -20.00 3.46 0.55 -0.13 0.00 -0.00 0.00 4.77 -0.02 -0.49 3.00 -0.00 -20.00 3.54 0.00 0.00 0.00 -0.00 -24.00 2.46 0.00 0.00 0.00 -0.00 -20.00 3.25 0.48 -1.24 0.00 -0.00 0.00 4.26 -0.02 -1.12 8.83 -0.00 -20.00 2.84 0.00 0.00 0.00 -0.00 -24.00 1.79 0.00 0.00 0.00 -0.00 -20.00 
